# xmcd CD database file
#
# Track frame offsets:
#	150
#	24540
#	45350
#	60677
#	80251
#	101098
#	120091
#	147723
#	162688
#	181372
#	200133
#	219289
#	233414
#	249832
#	265467
#	285605
#
# Disc length: 4024 seconds
#
# Revision: 0
# Processed by: cddbd v1.5.2PL0 Copyright (c) Steve Scherf et al.
# Submitted via: CDex 1.51
#
DISCID=e00fb610
DTITLE=Kenny G - Golden collection - 2 
DYEAR=2006
DGENRE=Jazz
TTITLE0=Going Home
TTITLE1=Jasmine Flower
TTITLE2=The Sound of Silence
TTITLE3=Endless Love
TTITLE4=Yesterday Once More
TTITLE5=Auld Lang Syne
TTITLE6=California Hotel
TTITLE7=Sealed With A Kiss
TTITLE8=Endless Love
TTITLE9=The Passages
TTITLE10=Right Here Waiting
TTITLE11=Moon River
TTITLE12=Careless Whisper
TTITLE13=Unchained Melody
TTITLE14=I Will Always Love You
TTITLE15=Tonight Celebrate My Love
EXTD=YEAR: 2006
EXTT0=
EXTT1=
EXTT2=
EXTT3=
EXTT4=
EXTT5=
EXTT6=
EXTT7=
EXTT8=
EXTT9=
EXTT10=
EXTT11=
EXTT12=
EXTT13=
EXTT14=
EXTT15=
PLAYORDER=
